<?xml version="1.0" standalone="no"?>
<!DOCTYPE svg PUBLIC "-//W3C//DTD SVG 20010904//EN"
 "http://www.w3.org/TR/2001/REC-SVG-20010904/DTD/svg10.dtd">
<svg version="1.0" xmlns="http://www.w3.org/2000/svg"
 width="240.000000pt" height="240.000000pt" viewBox="0 0 240.000000 240.000000"
 preserveAspectRatio="xMidYMid meet">

<g transform="translate(0.000000,240.000000) scale(0.100000,-0.100000)"
fill="#000000" stroke="none">
<path d="M1008 2384 c-48 -7 -129 -27 -179 -44 -707 -237 -1033 -1033 -692
-1692 268 -519 885 -772 1435 -588 431 145 747 516 813 957 121 805 -572 1493
-1377 1367z m475 -67 c415 -110 721 -416 834 -834 25 -89 27 -114 27 -283 0
-169 -2 -194 -27 -283 -113 -417 -417 -721 -834 -834 -89 -25 -114 -27 -283
-27 -169 0 -194 2 -283 27 -417 113 -721 417 -834 834 -40 145 -40 421 0 566
63 234 186 433 362 586 154 134 318 215 533 262 130 28 370 21 505 -14z"/>
<path d="M1090 2141 c-14 -5 -65 -25 -115 -46 -77 -33 -101 -38 -170 -39 -156
-2 -190 -48 -205 -282 -11 -169 -38 -445 -44 -452 -2 -2 -61 15 -130 37 -136
45 -172 49 -216 26 -103 -53 -84 -286 35 -431 46 -56 138 -115 225 -145 l70
-24 0 -58 c0 -32 4 -56 9 -53 8 5 21 -94 21 -168 l0 -39 23 21 c25 24 83 31
74 10 -3 -7 -12 -30 -21 -50 l-16 -38 30 0 c19 0 30 -5 30 -14 0 -16 21 -26
57 -26 l26 0 -6 -75 c-3 -41 -4 -75 -2 -75 2 0 39 18 82 40 43 23 105 46 139
52 57 10 62 9 100 -15 64 -41 107 -50 213 -45 153 8 279 72 341 173 26 42 34
43 164 10 54 -14 100 -24 102 -23 1 2 -6 27 -15 56 l-18 54 40 38 41 38 -42
41 c-23 23 -42 45 -42 50 0 4 37 11 81 14 45 4 84 9 87 12 3 3 -9 26 -26 51
l-32 45 40 56 c22 31 39 58 37 59 -1 2 -32 -2 -69 -8 -58 -10 -71 -9 -114 8
l-49 19 33 3 c21 2 32 9 32 19 0 12 8 14 45 9 25 -4 45 -5 45 -1 0 3 -12 24
-26 46 -14 23 -24 42 -22 44 2 2 44 16 93 31 l90 28 -37 11 c-50 14 -55 21
-31 48 41 44 142 208 164 265 29 77 37 188 15 230 -51 98 -186 77 -430 -67
-56 -34 -109 -61 -117 -61 -8 0 -23 21 -33 48 -45 110 -142 312 -178 369 -53
84 -127 149 -191 168 -53 16 -145 19 -187 6z m456 -778 c3 -16 22 -77 41 -138
36 -112 38 -138 18 -245 -5 -27 -4 -32 5 -20 9 12 10 5 5 -30 -7 -51 -22 -94
-43 -128 l-15 -23 -14 33 c-17 40 -49 75 -85 94 -37 19 -36 4 1 -20 16 -11 36
-33 46 -48 l17 -29 -29 7 c-15 4 -32 11 -38 15 -5 5 -17 9 -28 9 -13 0 -17 5
-12 18 6 22 -29 72 -50 72 -9 0 -5 -9 10 -25 14 -13 25 -29 25 -34 0 -15 -18
-23 -25 -11 -3 5 -17 10 -31 10 -19 0 -28 -7 -35 -30 -12 -33 -28 -40 -30 -12
-1 11 -4 8 -8 -8 l-7 -25 -19 23 c-24 28 -50 28 -69 1 l-14 -21 -12 21 c-6 12
-8 31 -5 41 7 21 -9 28 -21 9 -4 -8 -12 -2 -21 15 -7 14 -19 26 -25 26 -7 0
-6 -5 2 -15 17 -20 -7 -147 -38 -202 -6 -12 -12 -37 -12 -57 0 -25 -5 -36 -19
-41 -24 -7 -64 11 -76 34 -6 10 -25 46 -42 79 -18 34 -33 69 -33 77 0 9 -7 29
-15 44 -8 16 -16 40 -19 54 -2 14 -13 46 -24 70 -11 25 -23 64 -27 88 -6 40
-6 42 8 25 13 -18 15 -16 19 30 3 27 9 58 13 69 8 20 8 20 -13 1 -12 -11 -23
-26 -23 -35 -2 -19 -18 55 -18 85 -1 20 5 21 142 28 78 4 158 9 178 12 35 6
37 4 44 -25 4 -20 2 -37 -5 -46 -18 -22 -30 -18 -30 9 0 14 -4 28 -10 31 -6 4
-9 -4 -7 -17 2 -22 0 -23 -74 -20 -69 4 -78 2 -105 -21 -36 -32 -24 -54 20
-37 34 12 72 13 41 1 -29 -12 -51 -41 -59 -76 -6 -29 -6 -30 10 -8 13 18 20
20 44 12 30 -11 104 3 115 21 3 5 13 6 21 3 14 -5 15 -3 5 16 -7 12 -19 25
-27 28 -12 4 -12 7 3 18 9 7 23 11 29 8 7 -2 22 5 34 17 18 18 21 30 17 61 -3
22 -2 39 3 39 4 0 21 3 38 6 29 6 30 4 37 -35 l7 -41 71 0 70 0 -23 -25 c-13
-14 -21 -27 -18 -30 2 -3 13 4 23 15 21 23 55 27 55 5 0 -10 -10 -15 -27 -16
-27 0 -27 -1 -6 -11 27 -13 87 -3 103 17 7 8 16 15 21 15 16 0 10 -23 -13 -47
-20 -21 -14 -33 8 -15 5 4 0 -2 -12 -13 -24 -23 -44 -57 -44 -77 0 -7 5 -4 11
7 6 11 32 40 57 64 26 23 40 41 31 38 -12 -4 -15 0 -11 18 3 16 -4 32 -22 50
-22 22 -32 25 -59 19 -28 -6 -30 -5 -18 10 7 9 22 16 32 16 23 0 35 18 20 33
-8 8 -25 5 -63 -11 -29 -11 -66 -22 -83 -24 -18 -2 -29 -8 -28 -15 3 -14 -25
-17 -43 -5 -6 4 -15 21 -18 39 -7 31 -7 31 51 48 32 9 96 31 143 49 47 19 88
34 92 35 4 1 10 -11 14 -26z m-553 -273 c4 -17 0 -20 -28 -20 -41 0 -55 17
-23 29 35 15 45 13 51 -9z m713 -110 c9 -46 -5 -32 -16 15 -5 22 -5 34 1 28 5
-5 12 -24 15 -43z m44 -15 c0 -49 -21 -138 -30 -128 -15 16 -18 89 -4 108 8
10 14 29 14 43 0 13 4 20 10 17 6 -3 10 -21 10 -40z m-971 -168 c1 -5 -3 -5
-9 -2 -5 3 -10 16 -9 28 0 21 1 21 9 2 5 -11 9 -24 9 -28z m373 -7 c7 -1 -3
-9 -22 -20 -19 -10 -36 -17 -38 -15 -2 1 4 20 13 41 16 37 17 38 26 17 4 -13
14 -23 21 -23z m-346 -85 c9 -25 14 -49 10 -52 -10 -10 -44 27 -75 81 -22 38
-27 55 -20 68 9 16 13 15 40 -16 16 -19 37 -55 45 -81z m648 -25 c-17 -17
-165 -50 -218 -49 l-51 1 30 13 c17 8 44 14 61 15 18 0 46 6 64 14 38 16 129
21 114 6z m37 -20 c25 -14 24 -42 -3 -68 -37 -34 -108 -55 -108 -32 0 6 8 10
18 10 9 0 31 11 47 25 l30 26 -40 -21 c-22 -11 -52 -20 -68 -20 -15 0 -57 -7
-92 -16 -53 -13 -73 -14 -110 -5 -26 6 -51 9 -57 5 -6 -4 -9 -1 -6 7 9 27 62
43 153 44 73 1 101 6 150 28 71 31 62 29 86 17z m-251 -126 c24 5 24 5 3 -6
-25 -12 -81 -4 -109 17 -16 12 -12 12 31 -1 28 -8 61 -12 75 -10z"/>
<path d="M1380 1304 c-17 -15 -29 -28 -27 -30 2 -2 25 5 50 16 29 13 56 18 72
14 27 -7 35 10 9 20 -34 13 -74 5 -104 -20z"/>
<path d="M1238 1174 c-12 -11 -10 -42 3 -49 14 -10 16 -4 10 28 -3 16 -9 25
-13 21z"/>
<path d="M1289 1153 c-12 -32 -9 -55 9 -61 8 -2 12 10 12 42 0 52 -6 58 -21
19z"/>
<path d="M1160 1084 c-13 -33 -13 -37 3 -57 10 -14 12 -9 14 33 2 56 -3 62
-17 24z"/>
<path d="M1570 1106 c0 -2 7 -7 16 -10 8 -3 12 -2 9 4 -6 10 -25 14 -25 6z"/>
<path d="M1545 1080 c3 -5 8 -10 11 -10 2 0 4 5 4 10 0 6 -5 10 -11 10 -5 0
-7 -4 -4 -10z"/>
<path d="M1288 1040 c12 -29 18 -34 20 -20 4 21 -14 60 -28 60 -5 0 -1 -18 8
-40z"/>
<path d="M1066 1048 c-24 -34 -19 -44 9 -18 14 13 25 27 25 32 0 16 -19 8 -34
-14z"/>
<path d="M860 990 c-8 -5 -12 -11 -9 -14 2 -3 11 -1 19 4 8 5 12 11 9 14 -2 3
-11 1 -19 -4z"/>
<path d="M1160 961 c0 -19 8 -35 22 -45 12 -9 23 -14 25 -13 3 4 -38 87 -43
87 -2 0 -4 -13 -4 -29z"/>
<path d="M880 959 c0 -5 5 -7 10 -4 6 3 10 8 10 11 0 2 -4 4 -10 4 -5 0 -10
-5 -10 -11z"/>
</g>
</svg>
